<svg width="86" height="40" viewBox="0 0 86 40" fill="none" xmlns="http://www.w3.org/2000/svg">
<g clip-path="url(#clip0_12168_3151)">
<path d="M23.065 8.63273C22.4632 8.9896 22.0975 9.64046 22.1057 10.34L22.184 17.0543C22.1922 17.7538 22.573 18.396 23.183 18.7388L29.0367 22.028C29.6466 22.3707 30.3931 22.3619 30.9949 22.0051L33.4932 20.5235C34.1088 20.1584 34.7624 19.8547 35.4591 19.691C36.8672 19.3601 37.6907 19.1909 39.6939 19.3284C42.7245 19.5365 44.1605 22.4994 44.6204 24.3932C44.6596 24.5548 44.8819 24.5715 44.9247 24.4108C45.4677 22.3704 45.2073 18.7811 40.5815 17.1512C38.9836 16.5881 38.1457 15.5011 37.8025 14.191C37.7115 13.8436 37.6901 13.4829 37.6859 13.1239L37.6514 10.1586C37.6432 9.45908 37.2625 8.81695 36.6526 8.47422L30.7988 5.185C30.1889 4.84227 29.4423 4.85098 28.8405 5.20782L23.065 8.63273Z" fill="#54EFEB"/>
<path d="M17.9432 5.75472C17.3414 6.11159 16.9757 6.76244 16.9838 7.46203L17.1307 20.051C17.1389 20.7506 17.5197 21.3927 18.1297 21.7355L29.1054 27.9027C29.7153 28.2454 30.4617 28.2366 31.0635 27.8798L41.6844 21.5815C41.1245 21.0413 40.4445 20.6887 39.6047 20.631C37.7699 20.505 37.0826 20.6507 35.758 20.962C35.2315 21.0857 34.7038 21.3236 34.1593 21.6464L31.661 23.1281L31.6609 23.128C30.658 23.7226 29.4139 23.7374 28.3973 23.1662L22.5435 19.877C21.527 19.3057 20.8924 18.2355 20.8787 17.0695L20.8004 10.3553C20.7872 9.22578 21.3587 8.17236 22.3063 7.56689L22.3993 7.5098L28.1748 4.08489C29.1778 3.49018 30.4219 3.47561 31.4385 4.0468L37.2923 7.33603L37.3866 7.39103C38.348 7.97429 38.9437 9.01404 38.9569 10.1434L38.9571 10.1435L38.9916 13.1087C38.9954 13.437 39.0158 13.6698 39.0657 13.8601C39.3065 14.7796 39.8534 15.5104 41.0155 15.9199C41.6858 16.1561 42.2845 16.433 42.8167 16.7433L42.7049 7.16195C42.6967 6.46238 42.316 5.82027 41.7061 5.47754L30.7304 -0.68971C30.1205 -1.03244 29.3739 -1.02374 28.7721 -0.666889L17.9432 5.75472ZM35.4593 19.6911L35.7169 19.6309C35.633 19.6503 35.5472 19.6703 35.4592 19.691L35.3291 19.7234C35.3723 19.7121 35.4158 19.7013 35.4593 19.6911Z" fill="white"/>
<path d="M6.35855 27.4172V6.41471L1.92683 7.95618L0 3.52446L7.12928 0.441528H13.2952V27.4172H6.35855Z" fill="white"/>
<path d="M78.0338 27.4173V6.41483L73.6021 7.9563L71.6753 3.52459L78.8046 0.44165H84.9704V27.4173H78.0338Z" fill="white"/>
<path d="M63.2002 7.76361C63.2002 6.22214 62.4294 5.45141 60.888 5.45141H56.6489C55.1075 5.45141 54.3367 6.22214 54.3367 7.76361V20.0953C54.3367 21.6368 55.1075 22.4075 56.6489 22.4075H60.888C62.4294 22.4075 63.2002 21.6368 63.2002 20.0953V7.76361ZM70.1368 20.0953C70.1368 22.7929 69.5202 24.7583 68.287 25.9915C67.0795 27.1989 65.127 27.8027 62.4294 27.8027H55.1075C52.4099 27.8027 50.4445 27.1989 49.2114 25.9915C48.0039 24.7583 47.4001 22.7929 47.4001 20.0953V7.76361C47.4001 5.06604 48.0039 3.11352 49.2114 1.90603C50.4445 0.672861 52.4099 0.0562744 55.1075 0.0562744H62.4294C65.127 0.0562744 67.0795 0.672861 68.287 1.90603C69.5202 3.11352 70.1368 5.06604 70.1368 7.76361V20.0953Z" fill="white"/>
<path d="M77.6265 37.603C79.8032 37.7221 81.2768 37.7817 82.0474 37.7817C82.2301 37.7817 82.3731 37.7301 82.4764 37.6268C82.5876 37.5156 82.6432 37.3686 82.6432 37.1859V36.1135H79.9025C79.0684 36.1135 78.4607 35.9268 78.0793 35.5534C77.706 35.1721 77.5193 34.5644 77.5193 33.7302V33.3728C77.5193 32.5386 77.706 31.9349 78.0793 31.5615C78.4607 31.1802 79.0684 30.9895 79.9025 30.9895H84.0851V32.6578H80.3791C79.9025 32.6578 79.6642 32.8961 79.6642 33.3728V33.6111C79.6642 34.0877 79.9025 34.326 80.3791 34.326H82.524C83.3026 34.326 83.8745 34.5088 84.24 34.8742C84.6054 35.2396 84.7881 35.8116 84.7881 36.5901V37.1859C84.7881 37.9644 84.6054 38.5364 84.24 38.9018C83.8745 39.2673 83.3026 39.45 82.524 39.45C82.1189 39.45 81.6899 39.442 81.2371 39.4261L80.1408 39.3785C79.3305 39.3387 78.4924 39.2831 77.6265 39.2116V37.603Z" fill="#00EECF"/>
<path d="M69.3003 30.9895H74.3051C75.1392 30.9895 75.7429 31.1802 76.1163 31.5615C76.4976 31.9349 76.6883 32.5386 76.6883 33.3728V34.4452C76.6883 35.1046 76.5771 35.617 76.3546 35.9824C76.1401 36.3478 75.7946 36.5901 75.3179 36.7093L76.8074 39.3308H74.4838L73.1134 36.8284H71.4452V39.3308H69.3003V30.9895ZM74.5434 33.3728C74.5434 32.8961 74.3051 32.6578 73.8284 32.6578H71.4452V35.1602H73.8284C74.3051 35.1602 74.5434 34.9218 74.5434 34.4452V33.3728Z" fill="#00EECF"/>
<path d="M68.3498 39.3308H61.7363V30.9895H68.3498V32.6578H63.8812V34.2665H67.3965V35.9347H63.8812V37.6626H68.3498V39.3308Z" fill="#00EECF"/>
<path d="M60.786 39.3308H54.1726V30.9895H60.786V32.6578H56.3175V34.2665H59.8328V35.9347H56.3175V37.6626H60.786V39.3308Z" fill="#00EECF"/>
<path d="M52.7371 39.3308H50.473L47.6132 34.326V39.3308H45.4683V30.9895H47.7323L50.5922 35.9943V30.9895H52.7371V39.3308Z" fill="#00EECF"/>
<path d="M42.126 33.2536C42.126 32.777 41.8876 32.5386 41.411 32.5386H39.3853C38.9086 32.5386 38.6703 32.777 38.6703 33.2536V37.0668C38.6703 37.5434 38.9086 37.7817 39.3853 37.7817H41.411C41.8876 37.7817 42.126 37.5434 42.126 37.0668V33.2536ZM44.2709 37.0668C44.2709 37.9009 44.0802 38.5086 43.6989 38.8899C43.3255 39.2633 42.7218 39.45 41.8876 39.45H38.9086C38.0745 39.45 37.4668 39.2633 37.0854 38.8899C36.7121 38.5086 36.5254 37.9009 36.5254 37.0668V33.2536C36.5254 32.4195 36.7121 31.8157 37.0854 31.4424C37.4668 31.061 38.0745 30.8704 38.9086 30.8704H41.8876C42.7218 30.8704 43.3255 31.061 43.6989 31.4424C44.0802 31.8157 44.2709 32.4195 44.2709 33.2536V37.0668Z" fill="#00EECF"/>
<path d="M35.6924 39.3308H31.4026V37.6626H32.475V32.6578H31.4026V30.9895H35.6924V32.6578H34.6199V37.6626H35.6924V39.3308Z" fill="#00EECF"/>
<path d="M23.3 30.9895H28.3048C29.1389 30.9895 29.7427 31.1802 30.1161 31.5615C30.4974 31.9349 30.688 32.5386 30.688 33.3728V34.5644C30.688 35.3985 30.4974 36.0062 30.1161 36.3875C29.7427 36.7609 29.1389 36.9476 28.3048 36.9476H25.4449V39.3308H23.3V30.9895ZM28.5431 33.3728C28.5431 32.8961 28.3048 32.6578 27.8282 32.6578H25.4449V35.2793H27.8282C28.3048 35.2793 28.5431 35.041 28.5431 34.5644V33.3728Z" fill="#00EECF"/>
<path d="M18.656 39.3308H14.3662V37.6626H15.4387V32.6578H14.3662V30.9895H18.656V32.6578H17.5836V37.6626H18.656V39.3308Z" fill="#00EECF"/>
<path d="M7.75333 39.3309H5.42969L8.58746 30.9896H10.9707L14.1284 39.3309H11.8048L11.2686 37.8414H8.28955L7.75333 39.3309ZM8.82578 36.2923H10.7324L9.77907 33.492L8.82578 36.2923Z" fill="#00EECF"/>
</g>
<defs>
<clipPath id="clip0_12168_3151">
<rect width="85.0264" height="39.494" fill="white"/>
</clipPath>
</defs>
</svg>
