<svg width="23" height="14" viewBox="0 0 23 14" fill="none" xmlns="http://www.w3.org/2000/svg">
<path d="M0.950684 6.04916C0.425716 6.04916 0.000145674 6.47473 0.000145674 6.99969C0.000145674 7.52466 0.425716 7.95023 0.950684 7.95023L0.950684 6.99969L0.950684 6.04916ZM22.2134 7.67183C22.5846 7.30062 22.5846 6.69877 22.2134 6.32756L16.1642 0.278377C15.793 -0.0928316 15.1912 -0.0928316 14.82 0.278377C14.4488 0.649585 14.4488 1.25143 14.82 1.62264L20.197 6.99969L14.82 12.3767C14.4488 12.748 14.4488 13.3498 14.82 13.721C15.1912 14.0922 15.793 14.0922 16.1642 13.721L22.2134 7.67183ZM0.950684 6.99969L0.950684 7.95023L21.5413 7.95023V6.99969V6.04916L0.950684 6.04916L0.950684 6.99969Z" fill="#005348"/>
</svg>
