<svg width="23" height="14" viewBox="0 0 23 14" fill="none" xmlns="http://www.w3.org/2000/svg">
<path d="M0.950439 6.04922C0.425472 6.04922 -9.84669e-05 6.47479 -9.84669e-05 6.99976C-9.84669e-05 7.52472 0.425472 7.95029 0.950439 7.95029L0.950439 6.99976L0.950439 6.04922ZM22.2132 7.67189C22.5844 7.30068 22.5844 6.69883 22.2132 6.32762L16.164 0.278438C15.7928 -0.0927706 15.1909 -0.0927706 14.8197 0.278438C14.4485 0.649646 14.4485 1.25149 14.8197 1.6227L20.1968 6.99976L14.8197 12.3768C14.4485 12.748 14.4485 13.3499 14.8197 13.7211C15.1909 14.0923 15.7928 14.0923 16.164 13.7211L22.2132 7.67189ZM0.950439 6.99976L0.950439 7.95029L21.541 7.95029V6.99976V6.04922L0.950439 6.04922L0.950439 6.99976Z" fill="#005348"/>
</svg>
